<svg id="visual" viewBox="0 0 540 960" width="540" height="960" xmlns="http://www.w3.org/2000/svg" xmlns:xlink="http://www.w3.org/1999/xlink" version="1.1"><rect x="0" y="0" width="540" height="960" fill="#e5ecf1"></rect><defs><linearGradient id="grad1_0" x1="0%" y1="0%" x2="100%" y2="100%"><stop offset="30%" stop-color="#4549be" stop-opacity="1"></stop><stop offset="70%" stop-color="#4549be" stop-opacity="1"></stop></linearGradient></defs><defs><linearGradient id="grad1_1" x1="0%" y1="0%" x2="100%" y2="100%"><stop offset="30%" stop-color="#4549be" stop-opacity="1"></stop><stop offset="70%" stop-color="#4a6ed0" stop-opacity="1"></stop></linearGradient></defs><defs><linearGradient id="grad1_2" x1="0%" y1="0%" x2="100%" y2="100%"><stop offset="30%" stop-color="#6190dc" stop-opacity="1"></stop><stop offset="70%" stop-color="#4a6ed0" stop-opacity="1"></stop></linearGradient></defs><defs><linearGradient id="grad1_3" x1="0%" y1="0%" x2="100%" y2="100%"><stop offset="30%" stop-color="#6190dc" stop-opacity="1"></stop><stop offset="70%" stop-color="#85b0e4" stop-opacity="1"></stop></linearGradient></defs><defs><linearGradient id="grad1_4" x1="0%" y1="0%" x2="100%" y2="100%"><stop offset="30%" stop-color="#b2cfea" stop-opacity="1"></stop><stop offset="70%" stop-color="#85b0e4" stop-opacity="1"></stop></linearGradient></defs><defs><linearGradient id="grad1_5" x1="0%" y1="0%" x2="100%" y2="100%"><stop offset="30%" stop-color="#b2cfea" stop-opacity="1"></stop><stop offset="70%" stop-color="#e5ecf1" stop-opacity="1"></stop></linearGradient></defs><defs><linearGradient id="grad2_0" x1="0%" y1="0%" x2="100%" y2="100%"><stop offset="30%" stop-color="#4549be" stop-opacity="1"></stop><stop offset="70%" stop-color="#4549be" stop-opacity="1"></stop></linearGradient></defs><defs><linearGradient id="grad2_1" x1="0%" y1="0%" x2="100%" y2="100%"><stop offset="30%" stop-color="#4a6ed0" stop-opacity="1"></stop><stop offset="70%" stop-color="#4549be" stop-opacity="1"></stop></linearGradient></defs><defs><linearGradient id="grad2_2" x1="0%" y1="0%" x2="100%" y2="100%"><stop offset="30%" stop-color="#4a6ed0" stop-opacity="1"></stop><stop offset="70%" stop-color="#6190dc" stop-opacity="1"></stop></linearGradient></defs><defs><linearGradient id="grad2_3" x1="0%" y1="0%" x2="100%" y2="100%"><stop offset="30%" stop-color="#85b0e4" stop-opacity="1"></stop><stop offset="70%" stop-color="#6190dc" stop-opacity="1"></stop></linearGradient></defs><defs><linearGradient id="grad2_4" x1="0%" y1="0%" x2="100%" y2="100%"><stop offset="30%" stop-color="#85b0e4" stop-opacity="1"></stop><stop offset="70%" stop-color="#b2cfea" stop-opacity="1"></stop></linearGradient></defs><defs><linearGradient id="grad2_5" x1="0%" y1="0%" x2="100%" y2="100%"><stop offset="30%" stop-color="#e5ecf1" stop-opacity="1"></stop><stop offset="70%" stop-color="#b2cfea" stop-opacity="1"></stop></linearGradient></defs><g transform="translate(540, 0)"><path d="M0 216C-29.7 214.7 -59.4 213.4 -82.7 199.6C-105.9 185.7 -122.7 159.4 -136.5 136.5C-150.2 113.6 -160.9 94.1 -173.7 71.9C-186.4 49.8 -201.2 24.9 -216 0L0 0Z" fill="#cbdeed"></path><path d="M0 180C-24.8 178.9 -49.5 177.8 -68.9 166.3C-88.3 154.8 -102.3 132.8 -113.7 113.7C-125.2 94.6 -134.1 78.4 -144.7 60C-155.4 41.5 -167.7 20.7 -180 0L0 0Z" fill="#9bc0e7"></path><path d="M0 144C-19.8 143.1 -39.6 142.3 -55.1 133C-70.6 123.8 -81.8 106.2 -91 91C-100.2 75.7 -107.3 62.7 -115.8 48C-124.3 33.2 -134.1 16.6 -144 0L0 0Z" fill="#72a0e1"></path><path d="M0 108C-14.9 107.3 -29.7 106.7 -41.3 99.8C-53 92.9 -61.4 79.7 -68.2 68.2C-75.1 56.8 -80.5 47.1 -86.8 36C-93.2 24.9 -100.6 12.4 -108 0L0 0Z" fill="#547fd7"></path><path d="M0 72C-9.9 71.6 -19.8 71.1 -27.6 66.5C-35.3 61.9 -40.9 53.1 -45.5 45.5C-50.1 37.9 -53.6 31.4 -57.9 24C-62.1 16.6 -67.1 8.3 -72 0L0 0Z" fill="#455cc8"></path><path d="M0 36C-5 35.8 -9.9 35.6 -13.8 33.3C-17.7 31 -20.5 26.6 -22.7 22.7C-25 18.9 -26.8 15.7 -28.9 12C-31.1 8.3 -33.5 4.1 -36 0L0 0Z" fill="#4549be"></path></g><g transform="translate(0, 960)"><path d="M0 -216C27.4 -211.1 54.7 -206.3 81.5 -196.8C108.3 -187.3 134.5 -173.2 152.7 -152.7C170.9 -132.2 181.1 -105.4 190.3 -78.8C199.5 -52.3 207.8 -26.2 216 0L0 0Z" fill="#cbdeed"></path><path d="M0 -180C22.8 -175.9 45.6 -171.9 67.9 -164C90.3 -156.1 112.1 -144.4 127.3 -127.3C142.4 -110.2 150.9 -87.8 158.6 -65.7C166.3 -43.6 173.1 -21.8 180 0L0 0Z" fill="#9bc0e7"></path><path d="M0 -144C18.2 -140.8 36.5 -137.5 54.3 -131.2C72.2 -124.9 89.7 -115.5 101.8 -101.8C114 -88.2 120.7 -70.2 126.9 -52.6C133 -34.9 138.5 -17.4 144 0L0 0Z" fill="#72a0e1"></path><path d="M0 -108C13.7 -105.6 27.4 -103.1 40.8 -98.4C54.2 -93.7 67.3 -86.6 76.4 -76.4C85.5 -66.1 90.6 -52.7 95.2 -39.4C99.8 -26.2 103.9 -13.1 108 0L0 0Z" fill="#547fd7"></path><path d="M0 -72C9.1 -70.4 18.2 -68.8 27.2 -65.6C36.1 -62.4 44.8 -57.7 50.9 -50.9C57 -44.1 60.4 -35.1 63.4 -26.3C66.5 -17.4 69.3 -8.7 72 0L0 0Z" fill="#455cc8"></path><path d="M0 -36C4.6 -35.2 9.1 -34.4 13.6 -32.8C18.1 -31.2 22.4 -28.9 25.5 -25.5C28.5 -22 30.2 -17.6 31.7 -13.1C33.3 -8.7 34.6 -4.4 36 0L0 0Z" fill="#4549be"></path></g></svg>